<svg xmlns="http://www.w3.org/2000/svg" width="500" height="500" viewBox="0 0 500 500">
  <style>
    path {
      fill: #fff;
    }
  </style>

  <path d="M250 0C111.93 0 0 111.93 0 250c0 138.08 111.93 250 250 250s250-111.92 250-250C500 111.93 388.07 0 250 0zm0 458.94C134.8 458.94 41.06 365.2 41.06 250S134.8 41.06 250 41.06 458.94 134.8 458.94 250 365.2 458.94 250 458.94z"/>
  <path d="M404.46 201.17l-.1-.57c-.07-.38-.14-.75-.24-1.12l-.2-.64c-.1-.33-.22-.65-.35-.97l-.3-.65c-.13-.3-.28-.6-.45-.88l-.37-.62c-.18-.27-.37-.54-.57-.8-.14-.2-.3-.4-.45-.58-.2-.24-.43-.5-.66-.7-.18-.2-.35-.37-.53-.54l-.75-.63-.7-.45-.2-.17-141.3-94.2c-4.47-2.97-10.28-2.97-14.75 0l-141.3 94.2-.2.17-.6.45c-.27.2-.5.42-.76.63-.2.17-.36.35-.54.53l-.63.7c-.16.2-.32.4-.46.6-.2.25-.4.52-.55.8l-.38.6-.46.9-.3.64c-.14.32-.25.64-.35.97-.1.2-.17.42-.23.64-.1.37-.16.74-.23 1.1-.03.2-.08.4-.1.6-.08.56-.13 1.14-.13 1.72v94.2c0 .58.06 1.16.13 1.74.05.2.1.38.1.57.1.4.16.8.26 1.2l.2.66.35.97.3.65.5.9.35.6c.17.3.36.54.56.8.14.2.3.38.46.56.2.26.4.5.64.73.2.18.37.36.56.52l.74.6.6.46.2.16 141.3 94.2c2.22 1.5 4.8 2.24 7.36 2.24 2.57 0 5.14-.75 7.37-2.23l141.3-94.2.2-.15c.2-.16.4-.3.6-.47.24-.2.5-.4.74-.63.2-.17.36-.35.54-.53l.67-.7c.16-.18.3-.37.46-.57l.56-.83.37-.6c.18-.3.33-.6.47-.9l.3-.64.33-.98.2-.65c.1-.38.16-.76.22-1.1.04-.2.1-.4.1-.6.1-.6.13-1.17.13-1.76v-94.2c0-.57-.07-1.15-.15-1.72zM263.3 133.53l104.07 69.4-46.5 31.1-57.58-38.53v-61.97zm-26.6 0v61.97l-57.58 38.52-46.5-31.1 104.1-69.4zM122 227.77L155.22 250 122 272.23v-44.46zm114.72 138.7l-104.1-69.4 46.5-31.08 57.6 38.5v61.9zM250 281.43L203 250l47-31.43L297 250l-47 31.43zm13.3 85.04V304.5l57.58-38.5 46.5 31.08-104.1 69.4zM378 272.23L344.8 250l33.2-22.23v44.46z"/>
</svg>
